<?xml version="1.0" standalone="no"?>
<!DOCTYPE svg PUBLIC "-//W3C//DTD SVG 20010904//EN"
 "http://www.w3.org/TR/2001/REC-SVG-20010904/DTD/svg10.dtd">
<svg version="1.0" xmlns="http://www.w3.org/2000/svg"
 width="200.000000pt" height="126.000000pt" viewBox="0 0 200.000000 126.000000"
 preserveAspectRatio="xMidYMid meet">
<metadata>
Created by potrace 1.16, written by Peter Selinger 2001-2019
</metadata>
<g transform="translate(0.000000,126.000000) scale(0.100000,-0.100000)"
fill="#000000" stroke="none">
<path d="M2 628 l3 -633 2 628 3 627 990 0 990 0 3 -627 2 -628 3 633 2 632
-1000 0 -1000 0 2 -632z"/>
<path d="M1366 842 c-3 -2 -2 -50 1 -106 5 -86 3 -103 -11 -115 -13 -11 -16
-32 -16 -103 0 -105 19 -114 22 -10 1 62 1 63 7 22 l6 -45 8 43 7 42 55 0 55
0 2 -42 1 -43 7 45 c7 43 7 42 8 -22 3 -97 22 -86 22 12 0 58 -5 88 -16 106
-14 20 -16 43 -12 119 5 85 3 95 -13 100 -20 7 -126 4 -133 -3z"/>
</g>
</svg>
