<svg width="200" height="49" xmlns="http://www.w3.org/2000/svg" preserveAspectRatio="xMidYMid meet">
 <metadata>Created by potrace 1.16, written by Peter Selinger 2001-2019</metadata>

 <g>
  <title>Layer 1</title>
  <g id="svg_1" fill="#000000" transform="translate(0,49) scale(0.10000000149011612,-0.10000000149011612) ">
   <path id="svg_2" d="m163,411c-115,-53 -135,-224 -38,-310c30,-26 89,-51 120,-51c62,0 138,53 166,115c73,161 -86,319 -248,246zm145,-78c-2,-22 -9,-29 -30,-31c-32,-4 -37,-22 -8,-29c28,-7 28,-53 0,-53c-16,0 -20,-7 -20,-35c0,-33 -2,-35 -35,-35l-35,0l0,105l0,105l66,0l65,0l-3,-27z"/>
  </g>
  <text font-style="normal" font-weight="normal" style="cursor: move;" xml:space="preserve" text-anchor="start" font-family="'Rounded Mplus 1c Black'" font-size="20" id="svg_12" y="32.83333" x="48.5" opacity="undefined" stroke-width="0" stroke="#000" fill="#000000">FurnitureShop</text>
 </g>
</svg>