<?xml version="1.0" standalone="no"?>
<!DOCTYPE svg PUBLIC "-//W3C//DTD SVG 20010904//EN"
 "http://www.w3.org/TR/2001/REC-SVG-20010904/DTD/svg10.dtd">
<svg version="1.0" xmlns="http://www.w3.org/2000/svg"
 width="200.000000pt" height="49.000000pt" viewBox="0 0 200.000000 49.000000"
 preserveAspectRatio="xMidYMid meet">
<metadata>
Created by potrace 1.16, written by Peter Selinger 2001-2019
</metadata>
<g transform="translate(0.000000,49.000000) scale(0.100000,-0.100000)"
fill="#000000" stroke="none">
<path d="M163 411 c-115 -53 -135 -224 -38 -310 30 -26 89 -51 120 -51 62 0
138 53 166 115 73 161 -86 319 -248 246z m145 -78 c-2 -22 -9 -29 -30 -31 -32
-4 -37 -22 -8 -29 28 -7 28 -53 0 -53 -16 0 -20 -7 -20 -35 0 -33 -2 -35 -35
-35 l-35 0 0 105 0 105 66 0 65 0 -3 -27z"/>
</g>
</svg>
