<?xml version="1.0" standalone="no"?>
<!DOCTYPE svg PUBLIC "-//W3C//DTD SVG 20010904//EN"
 "http://www.w3.org/TR/2001/REC-SVG-20010904/DTD/svg10.dtd">
<svg version="1.0" xmlns="http://www.w3.org/2000/svg"
 width="200.000000pt" height="55.000000pt" viewBox="0 0 200.000000 55.000000"
 preserveAspectRatio="xMidYMid meet">
<metadata>
Created by potrace 1.16, written by Peter Selinger 2001-2019
</metadata>
<g transform="translate(0.000000,55.000000) scale(0.100000,-0.100000)"
fill="#000000" stroke="none">
<path d="M188 488 c-48 -16 -65 -29 -103 -76 -45 -57 -45 -57 -45 -137 l0 -80
49 -60 c43 -54 55 -62 111 -79 55 -17 69 -18 114 -6 76 19 93 31 142 95 42 57
44 62 44 130 0 68 -2 72 -46 132 -41 56 -52 64 -109 82 -77 25 -84 25 -157 -1z
m189 -51 c68 -47 103 -133 84 -205 -35 -126 -166 -191 -277 -134 -152 78 -151
273 1 356 47 26 143 17 192 -17z"/>
<path d="M180 429 c-140 -81 -107 -295 50 -330 58 -13 116 5 161 50 85 85 71
210 -30 278 -45 30 -131 31 -181 2z m190 -49 l0 -30 -60 0 c-57 0 -60 -1 -60
-25 0 -23 3 -25 50 -25 46 0 50 -2 50 -24 0 -23 -5 -25 -47 -28 -48 -3 -48 -3
-53 -43 -5 -37 -8 -40 -37 -43 l-33 -3 0 119 c0 65 3 122 7 125 3 4 46 7 95 7
l88 0 0 -30z"/>
</g>
</svg>
